HIERARCHY
ROOT Hips
{
	OFFSET 1.760526 105.769127 -1.111724
	CHANNELS 6 Xposition Yposition Zposition Xrotation Yrotation Zrotation
	JOINT Chest
	{
		OFFSET 0.283234 13.550583 1.567065
		CHANNELS 3 Xrotation Yrotation Zrotation
		JOINT Chest2
		{
			OFFSET -0.948943 21.223274 2.781798
			CHANNELS 3 Xrotation Yrotation Zrotation
			JOINT Chest3
			{
				OFFSET -0.737428 14.892532 -0.699047
				CHANNELS 3 Xrotation Yrotation Zrotation
				JOINT Neck
				{
					OFFSET 0.230111 17.200211 1.648004
					CHANNELS 3 Xrotation Yrotation Zrotation
					JOINT Head
					{
						OFFSET -0.381475 10.336746 1.683367
						CHANNELS 3 Xrotation Yrotation Zrotation
						End Site
						{
							OFFSET -0.378416 10.348343 1.611263
						}
					}
				}
				JOINT LeftCollar
				{
					OFFSET 4.517633 12.883484 3.925693
					CHANNELS 3 Xrotation Yrotation Zrotation
					JOINT LeftUpArm
					{
						OFFSET 14.039058 -5.217209 -9.175243
						CHANNELS 3 Xrotation Yrotation Zrotation
						JOINT LeftLowArm
						{
							OFFSET 5.073431 -33.370789 -0.615650
							CHANNELS 3 Xrotation Yrotation Zrotation
							JOINT LeftHand
							{
								OFFSET -1.495840 -28.043930 10.594701
								CHANNELS 3 Xrotation Yrotation Zrotation
								End Site
								{
									OFFSET -0.326925 -6.129166 2.315538
								}
							}
						}
					}
				}
				JOINT RightCollar
				{
					OFFSET -3.888570 12.956665 4.337359
					CHANNELS 3 Xrotation Yrotation Zrotation
					JOINT RightUpArm
					{
						OFFSET -14.499516 -5.633957 -8.155912
						CHANNELS 3 Xrotation Yrotation Zrotation
						JOINT RightLowArm
						{
							OFFSET -5.444338 -33.235229 -2.348078
							CHANNELS 3 Xrotation Yrotation Zrotation
							JOINT RightHand
							{
								OFFSET 1.423597 -28.411888 9.575647
								CHANNELS 3 Xrotation Yrotation Zrotation
								End Site
								{
									OFFSET 0.311140 -6.209702 2.092849
								}
							}
						}
					}
				}
			}
		}
	}
	JOINT LeftUpLeg
	{
		OFFSET 10.017184 -0.227310 0.153235
		CHANNELS 3 Xrotation Yrotation Zrotation
		JOINT LeftLowLeg
		{
			OFFSET 2.748756 -47.057579 -4.692222
			CHANNELS 3 Xrotation Yrotation Zrotation
			JOINT LeftFoot
			{
				OFFSET -0.604077 -42.833252 -12.865246
				CHANNELS 3 Xrotation Yrotation Zrotation
				JOINT LeftToe
				{
					OFFSET 0.406025 -16.288490 17.148752
					CHANNELS 3 Xrotation Yrotation Zrotation
					End Site
					{
						OFFSET 1.851362 -1.742263 23.517990
					}
				}
			}
		}
	}
	JOINT RightUpLeg
	{
		OFFSET -10.017193 0.227112 -0.153258
		CHANNELS 3 Xrotation Yrotation Zrotation
		JOINT RightLowLeg
		{
			OFFSET -2.223100 -47.268585 2.179592
			CHANNELS 3 Xrotation Yrotation Zrotation
			JOINT RightFoot
			{
				OFFSET -0.496033 -42.325424 -14.453092
				CHANNELS 3 Xrotation Yrotation Zrotation
				JOINT RightToe
				{
					OFFSET -2.012413 -18.038174 15.170078
					CHANNELS 3 Xrotation Yrotation Zrotation
					End Site
					{
						OFFSET -4.212188 -4.257678 22.884180
					}
				}
			}
		}
	}
}
MOTION
Frames: 16
Frame Time: 0.033333
-3.994358 108.388138 -0.781913 22.105935 -41.741554 1.856845 -10.387219 6.225111 -17.847411 -4.792726 11.823281 -19.206738 1.676352 -9.826127 4.287104 -11.986487 13.004361 -11.879902 0.000001 -0.000000 -0.000001 -11.198034 9.695017 17.690711 -7.204443 10.321900 50.319438 -3.310467 25.220875 27.465750 -0.000002 -0.000003 0.000003 -7.917149 8.062058 -67.742636 -13.205063 12.237662 -91.900830 -21.910511 -11.522176 -81.104248 -0.000000 -0.000002 -0.000001 -18.925042 -3.161341 13.109740 0.721175 -4.527595 -3.151351 6.281514 31.987497 8.655595 -0.000000 -0.000000 0.000001 2.722742 -1.931103 4.004242 75.731642 19.326654 10.822268 24.308286 -8.619075 3.900829 -0.000001 0.000001 0.000003 
-4.008972 108.395157 -0.768979 22.024358 -41.970269 1.812900 -10.345740 6.193808 -17.876543 -4.647564 11.773577 -19.180201 1.409653 -9.500408 4.300272 -11.960168 13.026682 -11.869206 0.000001 0.000001 0.000001 -11.081092 9.872711 17.639956 -6.861600 10.380930 50.136194 -3.257203 24.922402 27.830934 0.000001 -0.000004 0.000001 -7.939596 7.843282 -67.768447 -12.983750 12.724091 -91.990313 -21.708757 -11.351209 -81.329911 -0.000001 -0.000003 0.000002 -18.902171 -3.152763 13.174072 0.890037 -4.547235 -3.205598 6.183919 32.083591 8.720066 -0.000001 -0.000000 -0.000000 2.626989 -1.954331 4.099921 76.130197 19.214562 10.544416 23.125260 -9.203480 3.572572 -0.000000 -0.000000 -0.000001 
-4.022224 108.388786 -0.756177 22.202998 -42.406175 1.967703 -10.806253 6.193978 -17.504733 -4.513481 11.946260 -19.462160 1.372816 -9.122717 4.440285 -12.069486 13.097637 -11.823104 0.000000 0.000000 0.000000 -11.126637 9.799236 17.566721 -6.790018 10.596741 50.205715 -2.565357 25.359058 27.904594 -0.000001 -0.000003 -0.000003 -8.101968 7.787218 -67.894983 -13.103381 13.072601 -92.011630 -21.948202 -11.336996 -81.584561 -0.000003 0.000003 0.000000 -18.840728 -3.182065 13.143709 0.771009 -4.560266 -3.167827 6.454684 32.496449 8.760734 -0.000001 -0.000001 0.000000 2.636812 -1.938323 4.031261 76.443054 19.165733 10.243341 22.273594 -10.078490 3.292072 0.000002 -0.000003 0.000001 
-4.035378 108.397041 -0.737609 22.138151 -42.310758 1.987288 -10.594770 6.203087 -17.690323 -4.237102 11.849981 -19.440771 1.276361 -9.493476 4.318526 -12.604027 13.194828 -11.694372 0.000000 0.000000 0.000000 -11.156567 9.804918 17.619431 -6.725671 10.648021 50.249913 -2.407796 25.401084 28.151837 -0.000001 0.000003 -0.000001 -7.923350 8.077033 -67.999314 -13.072800 12.636560 -91.998311 -22.101189 -11.145353 -81.460620 0.000001 -0.000000 0.000001 -18.961872 -3.210012 13.159553 0.878818 -4.593277 -3.172280 6.589778 32.477290 8.799562 0.000000 -0.000001 -0.000001 2.600293 -1.970725 4.161917 76.461762 19.152416 10.260896 22.087944 -10.434168 3.205196 0.000001 0.000002 0.000003 
-4.053040 108.415421 -0.727656 22.151135 -42.201738 2.036851 -9.901742 6.195732 -18.184863 -4.566797 11.770947 -19.217130 1.279976 -9.715299 4.255841 -12.805988 13.048548 -11.520188 0.000000 -0.000000 -0.000002 -10.908681 8.861930 17.689034 -6.442203 11.092994 50.301980 -2.919515 25.208247 28.225248 -0.000000 -0.000003 0.000005 -8.419676 7.571669 -67.689811 -12.998254 12.714439 -92.172877 -22.810936 -10.354392 -80.985054 -0.000000 -0.000002 0.000001 -19.209955 -3.328277 13.317916 0.817847 -4.704690 -3.046643 6.840645 32.353472 8.660281 -0.000002 -0.000002 -0.000001 2.539831 -1.944128 4.243572 76.177387 19.388563 10.703309 22.072065 -10.697950 3.206794 0.000002 -0.000000 0.000001 
-4.077073 108.426323 -0.708120 22.073238 -42.192001 2.067973 -9.761181 6.164233 -18.350210 -4.689432 11.663627 -19.078197 1.375341 -10.005840 4.114005 -12.763715 12.973487 -11.649221 0.000001 0.000002 0.000003 -10.995280 9.679537 17.663450 -6.450484 10.781795 50.420320 -2.774429 25.077982 28.403357 -0.000002 -0.000003 0.000003 -8.322664 7.547473 -67.614952 -12.790889 12.065720 -92.151328 -22.708005 -10.203807 -81.625986 -0.000001 -0.000000 0.000000 -18.903807 -3.240320 13.119555 0.850184 -4.617462 -3.199715 6.335599 32.620048 8.955798 -0.000000 -0.000002 -0.000000 2.498049 -1.938801 4.265518 76.516137 19.296309 10.574207 21.902456 -10.828341 2.999154 0.000001 0.000002 0.000003 
-4.094372 108.440338 -0.693838 22.329715 -42.629943 2.143569 -10.108914 6.179628 -18.176575 -4.628199 11.615426 -19.062141 1.286802 -9.726411 4.084371 -12.655243 12.762407 -11.567130 0.000001 -0.000001 -0.000003 -10.815201 9.043760 17.894133 -6.350876 11.095189 50.299644 -2.983738 25.030336 28.554468 -0.000003 -0.000002 0.000006 -8.560617 7.270764 -67.507035 -12.824456 11.962414 -92.098981 -22.706255 -10.119169 -81.929062 -0.000001 -0.000002 0.000001 -18.941462 -3.275952 13.287719 0.869664 -4.603039 -3.254548 6.663538 32.949560 9.006743 -0.000000 0.000000 0.000000 2.645385 -1.955251 4.180658 76.577486 18.890135 9.874452 21.876553 -10.416530 3.067337 -0.000001 -0.000001 0.000004 
-4.111392 108.450142 -0.675905 22.300757 -42.762489 2.209967 -10.070146 6.163566 -18.140378 -4.611998 11.714565 -19.208659 1.339959 -9.654217 4.192351 -12.490167 12.874225 -11.708881 0.000000 0.000001 0.000000 -10.874558 9.359412 17.551542 -6.418467 10.794764 50.587912 -3.099607 24.867039 28.508091 0.000003 -0.000002 0.000006 -8.208691 7.626605 -67.796717 -12.696940 11.746854 -92.212062 -22.870619 -9.837499 -81.613200 -0.000001 -0.000001 -0.000003 -18.904471 -3.290008 13.400124 0.750201 -4.447007 -3.245701 6.881146 32.562148 8.699247 -0.000001 -0.000002 -0.000000 2.837425 -1.942507 4.127876 76.345560 18.999682 10.294932 21.507878 -10.554883 2.928467 0.000004 -0.000003 -0.000000 
-4.123976 108.469009 -0.656457 22.653074 -43.210215 2.460047 -10.293832 6.240867 -18.235519 -5.127774 11.784376 -19.142618 1.829991 -9.411739 4.348425 -12.352790 12.958014 -11.842370 -0.000001 -0.000001 0.000001 -11.131143 9.815410 17.445379 -6.665792 10.687188 50.722494 -3.098039 25.075091 28.362473 -0.000002 0.000001 -0.000000 -8.236336 7.669972 -67.603375 -12.752682 11.353689 -92.346944 -23.492171 -9.221614 -81.857106 -0.000005 0.000001 -0.000000 -19.049573 -3.374424 13.687309 0.521478 -4.270760 -3.347701 7.288731 32.654759 8.542488 -0.000001 -0.000001 -0.000002 2.553329 -1.964573 4.301700 76.817007 18.529733 9.444775 20.953630 -9.884570 2.917916 0.000001 0.000001 0.000005 
-4.134562 108.486107 -0.633803 22.537536 -43.231013 2.517263 -9.976283 6.260835 -18.445747 -4.791147 11.699470 -19.122506 1.402032 -9.875779 4.220282 -12.143571 13.236271 -12.051996 -0.000001 0.000001 -0.000001 -11.226261 9.817769 17.723159 -6.815202 10.771089 50.648445 -3.885865 24.931620 28.267206 -0.000001 0.000001 0.000003 -8.412105 7.541129 -67.409965 -12.899453 11.430824 -92.233659 -23.323522 -9.446207 -82.617374 0.000001 -0.000001 0.000004 -19.089465 -3.359346 13.679919 0.571183 -4.302752 -3.396888 7.272356 32.471477 8.542441 -0.000001 -0.000001 -0.000000 2.713075 -1.983992 4.232772 76.724403 18.536466 9.399638 20.382242 -10.507039 2.754006 0.000001 -0.000003 -0.000000 
-4.144410 108.499443 -0.613067 22.618568 -43.444993 2.559858 -9.994287 6.253244 -18.336138 -4.459749 11.774673 -19.268513 1.068416 -9.728018 4.357444 -12.143591 13.373486 -12.082488 -0.000003 -0.000000 -0.000001 -11.140343 9.304686 17.820262 -6.798274 10.811607 50.343251 -4.306947 24.919761 28.476128 -0.000001 0.000002 0.000002 -8.475650 7.476239 -67.479919 -12.923242 11.700205 -92.136602 -22.961252 -9.831081 -83.513085 -0.000002 -0.000000 0.000000 -19.100754 -3.387536 13.609820 0.704038 -4.298232 -3.330796 7.323159 32.553307 8.601345 0.000001 -0.000000 -0.000002 2.835417 -1.946643 4.116548 76.636901 18.728944 9.694630 20.146130 -11.076556 2.671846 -0.000000 -0.000001 0.000003 
-4.157390 108.513054 -0.590411 22.944364 -43.382209 2.599139 -10.195522 6.286121 -18.186545 -4.703513 11.746479 -19.129383 1.369196 -9.609668 4.368532 -12.106486 13.564117 -12.186229 0.000001 -0.000000 -0.000004 -11.387725 9.659334 17.695697 -6.864912 11.009713 50.436627 -4.619076 25.016309 28.522385 0.000001 -0.000002 0.000001 -8.494538 7.648500 -67.564955 -13.054176 11.022201 -91.996897 -23.154956 -9.813043 -83.946986 -0.000001 -0.000002 0.000001 -19.187820 -3.447897 13.566006 0.421077 -4.451099 -2.997817 7.617904 33.027738 8.657227 -0.000000 -0.000002 -0.000001 2.929746 -1.922633 4.215158 76.328429 18.778029 9.692261 20.205090 -10.721666 2.846210 -0.000004 -0.000001 0.000003 
-4.172283 108.525795 -0.565433 23.259603 -43.167356 2.687140 -10.420433 6.317260 -18.064935 -4.404777 11.690571 -19.156498 1.430188 -9.835619 4.267029 -12.542618 13.634975 -12.141345 -0.000003 0.000001 -0.000001 -11.671589 9.797899 17.604895 -7.031634 11.279725 50.817386 -4.982543 25.258075 28.396423 0.000002 0.000000 -0.000004 -8.798881 7.639155 -67.391912 -13.377380 10.701912 -91.940978 -23.896260 -9.373579 -84.118738 0.000001 0.000002 -0.000000 -19.514788 -3.572139 13.687671 0.392573 -4.492040 -3.031517 7.418138 33.040702 8.759984 0.000002 -0.000001 -0.000002 2.824591 -1.934524 4.393144 76.171035 18.979195 10.061135 20.232101 -10.656334 2.920928 0.000002 0.000000 -0.000002 
-4.194344 108.540436 -0.545375 23.105005 -43.260004 2.690887 -10.108413 6.333315 -18.364432 -4.948771 11.743726 -19.107526 1.576739 -9.424578 4.554996 -12.123950 13.555190 -12.208509 -0.000000 0.000000 -0.000001 -11.417573 8.711273 17.552849 -7.002102 11.431868 50.939920 -4.774427 25.358884 28.561143 0.000004 -0.000001 -0.000001 -8.660799 7.928455 -67.558098 -13.579884 11.348816 -91.858326 -24.361774 -8.879379 -83.627941 -0.000000 -0.000002 -0.000001 -19.445301 -3.528753 13.755594 0.238691 -4.445833 -2.973245 7.409651 32.963644 8.765712 -0.000000 -0.000002 0.000001 3.327515 -2.014807 4.262846 76.049526 18.647537 9.591814 20.028828 -9.559112 3.124086 -0.000001 0.000001 0.000001 
-4.215497 108.551750 -0.523824 23.253413 -42.986205 2.780647 -10.140854 6.303680 -18.335913 -4.631236 11.833146 -19.375095 1.423157 -9.313822 4.713549 -12.382468 13.445962 -12.008740 -0.000002 0.000000 0.000004 -10.870992 7.535341 17.421798 -6.509035 11.980813 50.924927 -3.947519 25.537808 28.864031 -0.000000 -0.000004 0.000001 -8.723405 7.703951 -67.640634 -13.284072 10.566086 -91.879295 -24.406839 -8.588818 -83.814638 -0.000002 -0.000004 -0.000001 -19.705839 -3.585818 13.849203 0.152310 -4.347392 -2.983141 7.436164 32.961561 8.695428 -0.000001 -0.000002 -0.000001 3.319902 -2.044253 4.517057 75.955959 18.793960 10.111767 19.460314 -9.851686 2.829136 0.000003 0.000000 -0.000001 
-4.230749 108.557426 -0.502076 23.795155 -42.816185 2.950300 -10.312996 6.268066 -18.156374 -4.754930 11.674821 -19.137656 1.500141 -9.237124 4.550946 -12.369104 13.490151 -12.081335 0.000001 0.000001 -0.000002 -10.622442 7.183745 17.293486 -6.379751 11.833091 50.997853 -2.874189 25.785863 29.005078 0.000002 0.000000 0.000002 -8.692345 7.618250 -67.794033 -13.018305 10.060002 -91.892245 -24.150227 -8.709907 -84.124114 -0.000001 -0.000002 0.000002 -20.108753 -3.653212 13.910655 0.194702 -4.478179 -2.953224 7.097803 33.103325 8.883778 -0.000001 -0.000002 -0.000000 2.979577 -2.008112 4.717560 75.833254 19.103525 10.646827 19.293249 -10.133804 2.708051 0.000000 0.000002 0.000003 
